<?xml version="1.0" encoding="UTF-8" standalone="no"?>
<!-- Created with Inkscape (http://www.inkscape.org/) -->

<svg
   width="1499.8713mm"
   height="419.16055mm"
   viewBox="0 0 1499.8713 419.16055"
   version="1.1"
   id="svg5"
   xml:space="preserve"
   inkscape:version="1.2.2 (b0a8486541, 2022-12-01)"
   sodipodi:docname="ftrlg-logo.svg"
   xmlns:inkscape="http://www.inkscape.org/namespaces/inkscape"
   xmlns:sodipodi="http://sodipodi.sourceforge.net/DTD/sodipodi-0.dtd"
   xmlns="http://www.w3.org/2000/svg"
   xmlns:svg="http://www.w3.org/2000/svg"><sodipodi:namedview
     id="namedview7"
     pagecolor="#ffffff"
     bordercolor="#000000"
     borderopacity="0.25"
     inkscape:showpageshadow="2"
     inkscape:pageopacity="0.0"
     inkscape:pagecheckerboard="0"
     inkscape:deskcolor="#d1d1d1"
     inkscape:document-units="mm"
     showgrid="false"
     inkscape:zoom="0.13181247"
     inkscape:cx="2143.1963"
     inkscape:cy="398.29312"
     inkscape:window-width="1920"
     inkscape:window-height="1048"
     inkscape:window-x="1920"
     inkscape:window-y="15"
     inkscape:window-maximized="1"
     inkscape:current-layer="layer1" /><defs
     id="defs2" /><g
     inkscape:label="Layer 1"
     inkscape:groupmode="layer"
     id="layer1"
     transform="translate(658.88439,-58.596682)"><path
       style="fill:#000000;stroke-width:0.263216"
       d="m -377.9053,477.39452 c -3.46247,-0.97282 -4.80155,-2.31834 -5.72661,-5.75409 -0.70774,-2.62854 -0.47173,-4.82275 1.74265,-16.20279 1.28222,-6.5896 1.08323,-7.84512 -1.80623,-11.39709 -2.58929,-3.18293 -2.37255,-3.71869 3.57108,-8.8277 0.99986,-0.85944 2.00681,-2.08969 2.81191,-3.43541 0.68982,-1.15311 1.73149,-2.58324 2.31479,-3.17812 0.93784,-0.9564 1.20039,-1.08157 2.26888,-1.08157 2.11016,0 2.31254,0.2568 3.30176,4.18969 0.30792,1.22418 0.78216,2.5831 1.05392,3.01985 0.44886,0.72144 2.46658,2.46726 4.68921,4.0573 0.67595,0.48357 0.85989,0.80319 0.85989,1.4943 0,1.12109 -0.74475,1.87007 -2.94457,2.96133 -4.23296,2.09985 -6.75995,4.51512 -7.60349,7.26741 -0.9896,3.22881 -2.7617,12.41293 -2.76397,14.32455 -0.004,3.09479 1.1607,5.12768 4.21912,7.36616 1.83142,1.34044 1.94916,1.4871 1.94916,2.42803 0,1.14886 -0.94908,2.29857 -2.09195,2.53416 -0.3774,0.0778 -0.89292,0.25214 -1.14559,0.38747 -0.6309,0.33787 -3.25631,0.25214 -4.69996,-0.15348 z m 19.57917,-89.96192 c -18.71459,-0.56145 -36.56931,-3.87609 -57.02086,-10.58562 -8.30079,-2.72325 -19.58249,-7.1231 -27.51351,-10.73022 -1.16417,-0.52947 -2.53339,-1.14726 -3.04271,-1.37288 -7.97227,-3.53136 -25.37995,-12.62629 -35.58646,-18.59272 -1.60073,-0.93574 -3.62479,-2.11587 -4.49792,-2.62251 -0.87312,-0.50664 -2.30187,-1.36204 -3.175,-1.90089 -0.87312,-0.53882 -3.4925,-2.13012 -5.82083,-3.53618 -8.2401,-4.97614 -30.28783,-19.41025 -37.71781,-24.69291 -2.2475,-1.59795 -4.71987,-3.35288 -5.49416,-3.89984 -6.35547,-4.48952 -22.74616,-17.17956 -33.93947,-26.2767 -16.13899,-13.11666 -29.84394,-25.47203 -30.68615,-27.66436 -0.75317,-1.96057 1.11339,-2.7294 7.82441,-3.22286 3.86856,-0.28445 5.98883,-0.20082 6.75262,0.26637 0.27927,0.17081 0.35752,0.69377 0.30269,2.02288 -0.11262,2.7301 0.3399,3.13113 8.3674,7.41523 2.51576,1.3426 5.04597,2.87223 5.6227,3.39917 0.98918,0.9038 1.03208,1.00493 0.75726,1.78517 -0.57893,1.64361 -2.35996,1.461 -5.80647,-0.59532 -2.62446,-1.56585 -3.80125,-1.83557 -4.08933,-0.93727 -0.30935,0.96463 0.94659,2.23484 7.82116,7.91003 12.4668,10.29176 41.09561,31.55985 59.76272,44.39721 7.01143,4.82176 24.79339,16.29876 25.25258,16.29876 0.0571,0 1.39643,0.78318 2.9762,1.74042 1.57976,0.95722 5.67131,3.31546 9.09234,5.24052 3.42103,1.92506 6.51771,3.67881 6.88152,3.89725 0.3638,0.21841 1.55442,0.85475 2.64583,1.41402 1.09141,0.5593 2.99641,1.5611 4.23333,2.22627 1.23693,0.66517 5.88037,3.00582 10.31875,5.20142 26.50269,13.11056 42.9595,19.00988 67.73334,24.28054 3.24162,0.68968 11.32266,1.91443 16.40416,2.48624 19.73662,2.22088 33.60598,1.17697 54.1073,-4.07251 16.98527,-4.34918 32.07752,-10.05884 50.53541,-19.1185 17.25269,-8.4681 35.05467,-18.93185 52.78438,-31.02594 1.0914,-0.74451 4.06797,-2.74645 6.61458,-4.44877 2.54661,-1.70232 5.70177,-3.8819 7.01146,-4.8435 1.30969,-0.9616 3.98859,-2.92296 5.95312,-4.35858 3.27896,-2.39617 6.19998,-4.6759 13.36146,-10.42807 5.62568,-4.51859 8.33006,-6.68575 11.77396,-9.43505 5.73667,-4.57964 6.35127,-5.08697 16.16183,-13.34091 4.45014,-3.74404 11.73406,-10.19986 12.3878,-10.97942 0.60192,-0.71782 0.12149,-0.8029 -1.89633,-0.33584 -2.45094,0.56732 -3.1801,0.55444 -3.74761,-0.0662 -0.43714,-0.47805 -0.43423,-0.55826 0.0593,-1.6366 0.57565,-1.2578 1.93355,-2.61677 4.61531,-4.61894 0.98086,-0.73231 1.69524,-1.37965 1.5875,-1.43854 -0.10777,-0.0589 -1.84301,0.13391 -3.85612,0.42842 -3.1891,0.46655 -3.90234,0.49437 -5.54178,0.21613 -2.96105,-0.50253 -4.39864,-1.964 -3.57245,-3.63178 0.67484,-1.36224 1.68648,-1.51138 10.12859,-1.49324 4.22011,0.009 8.98261,0.0971 10.58334,0.19555 l 2.91041,0.17905 4.77356,-4.65023 c 2.62546,-2.55763 6.31846,-6.12316 8.20666,-7.92342 1.8882,-1.80026 4.85976,-4.63532 6.60353,-6.30014 3.88405,-3.70826 7.43981,-6.85322 18.913132,-16.72805 2.40109,-2.06657 5.55625,-4.78851 7.01145,-6.04875 8.2522,-7.14661 11.776212,-10.11661 17.870863,-15.06142 3.717078,-3.0158 8.166603,-6.5438 9.887797,-7.83998 1.721194,-1.29619 4.275878,-3.24393 5.677058,-4.32832 2.888509,-2.23544 16.209328,-11.85917 18.819495,-13.59631 0.945886,-0.6295 3.029479,-2.03424 4.630209,-3.12162 3.510121,-2.38446 8.275293,-5.50824 10.980208,-7.19803 1.091406,-0.68181 2.936875,-1.84471 4.101042,-2.58423 2.0925104,-1.32924 7.9738804,-4.81199 13.3614584,-7.91223 1.527969,-0.87925 3.909219,-2.17146 5.291667,-2.87156 1.382448,-0.70011 2.6410966,-1.37156 2.7970156,-1.49212 0.319326,-0.24691 17.24832,-8.61208 17.428687,-8.61208 0.06374,0 1.152948,-0.47635 2.42046,-1.05857 4.778243,-2.19484 17.492319,-7.04571 22.226403,-8.48018 10.045091,-3.04374 19.969903,-4.81453 35.560767,-6.34477 5.869887,-0.57614 26.234678,-0.67144 31.617708,-0.14798 11.56779,1.1249 17.75748,2.25658 28.83958,5.27284 22.15132,6.029 44.95514,15.40733 67.67955,27.83399 3.89948,2.1324 7.35229,4.04011 7.67291,4.23937 0.32062,0.19925 3.61905,2.18618 7.32983,4.4154 12.71829,7.64038 28.19633,18.34368 42.33334,29.2741 8.36554,6.46807 14.06945,11.0443 26.7508,21.46214 2.02237,1.6614 11.30128,9.58519 15.21021,12.98886 8.77615,7.64178 18.16311,16.3769 23.88489,22.22624 10.02038,10.2438 9.21655,9.74771 16.55069,10.21426 5.75641,0.36619 7.09877,0.70436 8.68622,2.18826 1.2977,1.21307 1.28751,1.76972 -0.0389,2.12321 -1.13966,0.30372 -1.49119,0.8282 -1.0732,1.60118 0.43275,0.80028 1.99655,1.64536 5.17956,2.79905 5.3186,1.92775 9.87841,4.54438 10.43247,5.98664 0.61669,1.6053 -0.61225,2.65667 -2.71076,2.31908 -1.456,-0.23423 -4.88098,-1.35309 -8.37975,-2.73747 -1.50821,-0.59675 -2.93696,-1.04201 -3.175,-0.98944 -0.5233,0.11555 1.15935,1.81863 6.11785,6.19216 3.95592,3.4892 3.51822,3.11281 7.48792,6.43915 5.73842,4.80836 12.67397,10.66448 13.61038,11.4921 2.10712,1.86229 10.20863,8.42498 14.15521,11.46652 5.31495,4.09612 18.02699,13.30739 22.225,16.1045 1.74625,1.16351 4.84187,3.23908 6.87917,4.61241 7.27715,4.90547 20.55608,13.0701 27.64895,17.00014 0.65485,0.36283 2.91703,1.63529 5.02709,2.82767 2.11005,1.19236 5.92005,3.22696 8.46666,4.52131 2.54662,1.29435 5.76117,2.93723 7.14349,3.65084 6.53502,3.37375 15.08183,6.99032 21.6961,9.18066 3.67575,1.21724 21.04914,5.88157 28.89781,7.75834 45.30794,10.83401 94.49134,-1.6394 153.06781,-38.81963 16.92363,-10.74192 29.27321,-19.3399 37.80161,-26.3181 1.29275,-1.05778 4.07688,-3.30149 6.18693,-4.98603 6.05841,-4.83667 11.75912,-9.39133 15.34584,-12.26075 3.94996,-3.16003 6.87916,-5.89929 6.87916,-6.43312 0,-0.55657 -0.5107,-0.88066 -1.71979,-1.09137 -1.35416,-0.236 -2.24896,-0.80844 -2.24896,-1.43876 0,-0.77438 2.08169,-2.38823 4.79685,-3.71878 1.36355,-0.66821 4.47392,-2.18911 6.91189,-3.37978 6.64996,-3.24773 7.96407,-4.65828 5.09231,-5.46606 -1.05421,-0.29654 -3.87575,-0.37632 -13.89063,-0.39279 -13.17588,-0.0216 -13.80228,-0.0739 -14.0933,-1.17523 -0.36689,-1.38856 0.88038,-2.2572 4.27088,-2.97438 2.29733,-0.48595 3.40035,-0.53585 11.27763,-0.51025 12.09072,0.0393 22.0717,0.79726 24.19114,1.83711 1.26413,0.6202 1.54149,1.15428 1.06434,2.04939 -0.88892,1.66759 -10.48715,10.81504 -18.37631,17.51323 -2.18282,1.85329 -4.6236,3.95619 -5.42396,4.6731 -1.27982,1.14637 -15.54734,12.5065 -24.07952,19.17265 -1.67214,1.30644 -5.06434,3.96336 -7.53819,5.90424 -4.85595,3.80978 -9.82271,7.53473 -12.56771,9.42551 -25.27107,17.4067 -36.84545,24.81656 -48.94792,31.33619 -6.43408,3.46608 -9.91647,5.16026 -17.3302,8.43123 -11.79772,5.20516 -35.447,13.16013 -46.83125,15.75273 -6.99334,1.59264 -24.68989,3.35692 -33.73438,3.3632 -7.65836,0.005 -12.51447,-0.51559 -24.20937,-2.59703 -6.93582,-1.23444 -11.81603,-2.31957 -15.22487,-3.3853 -1.37623,-0.43025 -2.91894,-0.89835 -3.42826,-1.04019 -2.0292,-0.56519 -10.10177,-3.09283 -18.25625,-5.71626 -7.87588,-2.53382 -12.19491,-4.15473 -17.41567,-6.53602 -1.06566,-0.48608 -1.98466,-0.88377 -2.04226,-0.88377 -0.0576,0 -4.18632,-1.99235 -9.17493,-4.42745 -13.6474,-6.66169 -21.71296,-10.91454 -25.87131,-13.64155 -3.93279,-2.57907 -33.88791,-24.07499 -38.98725,-27.9774 -16.10902,-12.32787 -44.15877,-35.96746 -57.02035,-48.05525 -1.6649,-1.56473 -3.44414,-3.01742 -3.95386,-3.2282 -1.03878,-0.42956 -4.59777,-1.23201 -7.98854,-1.8012 -4.33358,-0.72744 -5.55167,-1.44695 -6.27052,-3.7038 -0.76567,-2.40404 -3.07763,-4.28024 -8.81073,-7.15014 -5.9201,-2.9635 -9.4783,-5.2919 -10.26366,-6.71629 -0.40711,-0.73839 -0.16341,-2.44304 0.3493,-2.44304 0.38209,0 1.52091,0.47152 4.88728,2.02353 5.05039,2.3284 7.12605,2.94923 7.67435,2.29538 0.84984,-1.01344 -2.70415,-5.01975 -13.3676,-15.06885 -8.56599,-8.0725 -25.20299,-22.19547 -37.16925,-31.55259 -6.99479,-5.46965 -18.98793,-14.29022 -25.21008,-18.54122 -1.34139,-0.91643 -3.33185,-2.2825 -4.42325,-3.03571 -2.77384,-1.9143 -13.19393,-8.72476 -15.74271,-10.28927 -1.16417,-0.7146 -2.53339,-1.56627 -3.04271,-1.8926 -5.18239,-3.32036 -17.89255,-10.61333 -25.53234,-14.65016 -14.95867,-7.9041 -30.74744,-14.84509 -42.33334,-18.61038 -8.17776,-2.65768 -22.17978,-6.05699 -29.10416,-7.0657 -1.60073,-0.23319 -3.98198,-0.5983 -5.29167,-0.81136 -7.97358,-1.29716 -23.89176,-2.00428 -32.513743,-1.44432 -7.690194,0.49944 -11.200262,1.05625 -24.099705,3.823 -19.53678,4.19038 -28.084647,6.68892 -37.505428,10.96286 -1.058677,0.48029 -2.698777,1.20568 -3.644662,1.61197 -2.608871,1.1206 -17.175744,8.44766 -20.7240186,10.42408 -1.721088,0.95866 -3.185345,1.74301 -3.253899,1.74301 -0.343482,0 -14.385713,8.21919 -19.0168744,11.13095 -2.383684,1.49869 -6.875912,4.45446 -7.861617,5.17273 -0.478314,0.34853 -4.501039,3.20757 -8.939424,6.35343 -10.905861,7.7299 -15.517522,11.15934 -21.985764,16.34968 -6.879511,5.52034 -15.930219,12.89115 -18.340679,14.93648 -1.613111,1.36874 -4.004495,3.37155 -5.314182,4.45069 -1.309688,1.07914 -2.440782,2.02516 -2.513542,2.10228 -0.07276,0.0771 -2.20607,1.89872 -4.74067,4.048 -5.06839,4.29785 -8.57173,7.41785 -14.97079,13.33265 -5.264812,4.86638 -8.588142,7.60297 -10.237872,8.43032 -1.42864,0.71649 -1.62602,1.27255 -0.5439,1.53234 1.40108,0.33636 2.91992,1.2106 3.06642,1.76502 0.31488,1.19166 -1.42246,3.11967 -4.32319,4.79769 -3.08274,1.78331 -4.49792,2.80204 -4.49792,3.23786 0,0.73631 3.1758,1.75956 4.62561,1.49038 0.98885,-0.1836 2.46938,0.78373 3.19415,2.08699 0.5582,1.0037 0.43657,1.62952 -0.44294,2.27873 -0.76655,0.56587 -2.98111,0.80957 -10.86598,1.19578 -6.33664,0.31037 -5.91341,0.0642 -17.6775,10.28241 -5.16599,4.48714 -10.64287,9.18889 -12.17084,10.44833 -1.52797,1.25943 -5.82713,4.81028 -9.5537,7.89078 -3.72655,3.0805 -7.88104,6.48466 -9.23219,7.56482 -1.35117,1.08015 -3.25612,2.61201 -4.23325,3.40412 -5.40631,4.38262 -10.02647,8.04256 -12.91556,10.2313 -1.79229,1.35778 -4.2926,3.26607 -5.55625,4.24063 -1.26368,0.97456 -5.31717,3.97936 -9.00777,6.67732 -19.51016,14.26267 -23.06965,16.65907 -36.54919,24.60626 -8.92509,5.26201 -26.84873,14.60015 -37.04167,19.29855 -9.25952,4.26812 -20.87756,8.93923 -26.85521,10.7973 -1.16417,0.36186 -3.78354,1.1755 -5.82083,1.80809 -13.08066,4.06164 -30.00939,7.11766 -41.93646,7.57048 -2.25557,0.0856 -4.45823,0.18825 -4.89479,0.228 -0.43656,0.0398 -3.59172,-0.0115 -7.01146,-0.11422 z m 673.60914,-31.03186 c -1.10625,-1.16903 -0.87265,-3.95407 1.18414,-14.117 0.96187,-4.75268 2.94648,-14.59191 4.41026,-21.86495 3.21088,-15.95368 3.44855,-16.95294 4.5443,-19.10716 0.75665,-1.48754 1.01206,-1.75543 2.09796,-2.20042 1.05333,-0.43164 1.35361,-0.45863 2.02782,-0.18223 1.39459,0.5717 1.81385,2.91477 1.19798,6.69496 -0.90252,5.53954 -8.92731,44.68923 -9.52722,46.47938 -1.2273,3.66234 -2.38861,4.97526 -4.40074,4.97526 -0.61918,0 -1.08979,-0.20789 -1.5345,-0.67784 z M 579.2473,326.76973 c -0.89483,-0.21451 -3.68115,-2.22729 -5.23465,-3.78138 -2.32445,-2.32533 -2.33797,-4.10635 -0.0384,-5.05728 1.53686,-0.63552 5.216,-0.9414 7.81188,-0.64948 3.00434,0.33785 4.57999,1.00669 5.14781,2.18513 0.41384,0.8589 0.40685,0.95429 -0.1542,2.1013 -0.62656,1.28095 -2.06613,2.66902 -4.31668,4.16225 -1.43708,0.95349 -2.34725,1.24769 -3.21579,1.03946 z m -33.35989,-4.11791 c -4.96268,-0.59321 -7.27604,-1.78303 -7.27604,-3.74222 0,-1.45785 0.43812,-1.86241 2.6352,-2.43328 3.69892,-0.96111 14.45381,-0.54031 18.39917,0.71989 2.16832,0.69259 2.51355,1.01622 2.51355,2.35634 0,1.40367 -0.90363,2.46421 -2.53439,2.97449 -1.50286,0.47024 -10.18747,0.54911 -13.73749,0.12478 z m 53.79043,-0.12486 c -1.60732,-0.30933 -1.88312,-0.69174 -1.7271,-2.39463 0.16309,-1.78001 0.7402,-2.73719 1.8672,-3.09687 2.7047,-0.86318 15.79435,-1.29984 17.1101,-0.57077 0.87865,0.48687 1.04947,0.7796 1.05428,1.80679 0.0124,2.65138 -2.25255,3.80399 -8.33033,4.23922 -3.95186,0.28299 -8.54937,0.2905 -9.97415,0.0162 z m -75.08939,-1.73346 c -13.68602,-2.00655 -15.85933,-2.52546 -17.53891,-4.18774 -0.81454,-0.80615 -0.97075,-2.18329 -0.32062,-2.82672 0.63735,-0.63079 2.94862,-0.76721 7.85109,-0.4634 5.43157,0.3366 11.03971,1.12201 13.49274,1.88963 3.41739,1.06938 3.81786,2.75077 1.22521,5.14402 -0.85903,0.79298 -1.75459,0.87743 -4.70951,0.44421 z m 105.56875,-0.29189 c -2.0946,-0.31198 -2.77402,-0.86565 -3.05064,-2.48602 -0.22201,-1.30055 0.24177,-1.86569 2.00739,-2.44609 2.50415,-0.82317 12.27603,-1.52055 14.18963,-1.01265 0.693,0.18393 1.20219,1.45434 0.97129,2.42339 -0.23511,0.98665 -1.09831,1.82681 -2.19176,2.13321 -2.59667,0.72763 -10.32282,1.62695 -11.92591,1.38816 z m -978.9302,-2.42944 c -0.66448,-0.10644 -1.31953,-0.39872 -1.52901,-0.68223 -0.42497,-0.57521 -0.23878,-1.8404 0.37169,-2.52573 0.91646,-1.02881 1.94064,-1.12274 12.24169,-1.12274 10.48126,0 11.5933,0.11033 12.18753,1.20921 0.71451,1.32131 -0.54467,2.21266 -3.65633,2.58823 -5.34906,0.64562 -16.94606,0.96089 -19.61557,0.53326 z m -51.88646,-1.06902 c -7.33945,-1.25003 -8.68924,-1.60412 -9.45886,-2.48138 -1.06251,-1.21112 -0.6255,-3.88091 0.67767,-4.14003 0.39127,-0.0778 2.4378,0.0189 4.54785,0.21484 2.11006,0.19596 5.44381,0.4302 7.40834,0.52054 5.47047,0.25157 7.82579,0.82597 9.45885,2.30676 0.90694,0.82238 0.80425,2.14009 -0.24217,3.10752 -2.00583,1.8544 -3.85924,1.92495 -12.39168,0.47175 z m 22.32358,0.7743 c -0.94022,-0.26977 -1.47831,-1.25928 -1.52466,-2.80392 -0.0262,-0.87297 0.0706,-1.01843 0.96591,-1.45136 0.86225,-0.41696 1.65061,-0.47849 5.9082,-0.46116 4.50138,0.0183 10.05406,0.36211 11.35301,0.7029 1.25886,0.33027 2.51253,1.00215 2.64591,1.418 0.42386,1.32175 -1.12077,2.17592 -4.67537,2.58542 -3.00683,0.34639 -13.47579,0.35361 -14.673,0.0101 z m 60.61173,-0.14527 c -0.44294,-0.0654 -1.14739,-0.38886 -1.56546,-0.71878 -1.79372,-1.41552 -0.37476,-3.63489 2.84848,-4.4553 2.90277,-0.73884 10.40601,-1.50955 15.13271,-1.55438 4.10768,-0.039 4.60555,0.007 5.73857,0.52473 1.05701,0.48342 1.26709,0.70692 1.41933,1.51004 0.40312,2.12659 -0.67376,2.97085 -4.51207,3.53742 -6.05086,0.89317 -16.53627,1.52921 -19.06156,1.15627 z m 813.60531,-1.14112 c -3.33092,-0.35987 -11.4227,-2.16357 -13.40054,-2.98704 -0.53083,-0.22101 -1.39403,-0.80217 -1.91822,-1.29146 -0.78648,-0.7341 -0.95311,-1.07318 -0.95311,-1.93953 0,-1.59944 0.34208,-1.74466 3.64707,-1.54819 3.11218,0.18501 10.415,1.04938 12.84012,1.51978 2.00022,0.38798 3.12423,1.14724 3.43223,2.3185 0.2709,1.0302 0.12321,3.31489 -0.23678,3.66286 -0.40248,0.38907 -1.48465,0.47317 -3.41077,0.26508 z m 157.02121,0.0382 c -1.77733,-0.37879 -2.27835,-1.07466 -1.66952,-2.31879 0.38981,-0.7966 1.82465,-1.60421 3.92748,-2.21063 2.09343,-0.60371 8.97895,-1.55732 12.23571,-1.69458 4.37507,-0.18439 4.71236,-0.0508 4.67212,1.84991 -0.0336,1.58781 -0.73986,2.31574 -2.80244,2.88851 -3.5002,0.97198 -14.2107,1.94435 -16.36335,1.48558 z m -936.48371,-2.31992 c -0.96094,-0.22883 -1.98437,-1.41722 -1.98437,-2.30421 0,-1.59269 2.02903,-2.71424 6.17593,-3.41375 2.97733,-0.50223 5.53974,-0.4188 6.16574,0.20075 0.27406,0.27124 0.41939,0.88171 0.41939,1.76171 0,2.10529 -1.00912,2.91055 -4.46823,3.56556 -1.89878,0.35955 -5.1812,0.45838 -6.30846,0.18994 z m -143.80104,-0.85618 c -1.23693,-0.11814 -3.61818,-0.45869 -5.29167,-0.7568 -5.87689,-1.04685 -7.14375,-1.71577 -7.14375,-3.772 0,-2.52922 2.48645,-3.11622 8.59896,-2.03003 6.31976,1.12301 9.92096,2.16422 11.43296,3.30559 1.17519,0.88712 1.15125,2.07032 -0.0559,2.76089 -0.98814,0.56529 -4.42642,0.78979 -7.54063,0.49235 z M 679.7457,311.92971 c -1.04089,-0.44856 -1.63388,-1.73619 -1.21679,-2.64215 0.77719,-1.6882 9.68185,-4.39982 12.97948,-3.95249 1.30283,0.17673 2.14881,0.76676 2.14881,1.4987 0,1.58599 -4.15488,4.05782 -7.44558,4.42953 -1.07093,0.12097 -2.72103,0.40226 -3.66692,0.62509 -2.03731,0.47993 -1.78966,0.47628 -2.799,0.0413 z m -942.01845,-1.97494 c -1.76551,-1.8705 -0.56716,-3.67947 3.09557,-4.6729 5.38668,-1.46102 10.35273,-0.0699 8.69405,2.43546 -0.86357,1.30441 -4.79933,2.61794 -8.74318,2.91796 l -2.24306,0.17064 z m 726.81211,-0.1564 c -5.00986,-1.14676 -7.87482,-2.34197 -9.11757,-3.80367 -0.56475,-0.66425 -0.69392,-1.05592 -0.63063,-1.91233 l 0.0796,-1.07698 1.95065,-0.0776 c 3.45395,-0.13738 12.8234,1.41396 14.90871,2.4685 1.00558,0.50853 1.34776,1.28006 1.18838,2.6795 -0.21244,1.86545 -1.01349,2.3972 -3.57656,2.37417 -1.14758,-0.0103 -3.24287,-0.2946 -4.80256,-0.65161 z M -453.04696,309.235 c -3.54828,-0.61435 -11.51067,-3.00753 -13.7605,-4.13585 -3.71041,-1.86083 -4.27998,-4.05463 -1.26151,-4.85903 1.37939,-0.36761 2.66369,-0.18914 6.90229,0.95914 1.86432,0.50506 4.75925,1.08644 6.43319,1.29195 3.5776,0.43923 5.16139,1.04573 5.91181,2.26389 0.66497,1.07944 0.67387,1.69685 0.0389,2.70183 -1.20273,1.90367 -1.88815,2.18947 -4.2642,1.77807 z m 212.2774,-2.69707 c -0.66119,-0.26358 -1.29204,-1.12884 -1.53381,-2.10367 -0.38868,-1.56717 2.34092,-3.20214 8.06682,-4.83186 4.47231,-1.27293 6.64184,-1.7041 9.35083,-1.8584 2.98701,-0.17013 3.98047,0.0699 4.09093,0.98847 0.10446,0.86851 -0.93826,1.7441 -3.73314,3.13485 -2.37675,1.1827 -8.7572,3.33227 -12.75132,4.29593 -2.95963,0.71407 -2.70698,0.68695 -3.49031,0.37468 z m 945.20853,-1.82014 c -0.40018,-0.31464 -0.7276,-0.79012 -0.7276,-1.05663 0,-1.16831 3.53161,-3.42202 7.36523,-4.70017 1.74766,-0.58266 4.75123,-0.72545 5.61674,-0.26701 0.62915,0.33324 0.64778,1.24979 0.0399,1.96683 -0.24982,0.29471 -1.16859,1.01132 -2.04171,1.59248 -3.7719,2.51057 -8.69029,3.69284 -10.25261,2.4645 z m -264.12031,-1.50572 c -0.43656,-0.0592 -1.97204,-0.39178 -3.4122,-0.73907 -6.58437,-1.58783 -10.5637,-4.99076 -7.56801,-6.47185 1.74779,-0.86411 5.43039,-0.50048 10.17834,1.00504 4.40026,1.39528 6.76875,2.93922 6.74658,4.39791 -0.0246,1.62518 -2.26594,2.30681 -5.94471,1.80797 z m -925.48213,-2.04657 c -5.10557,-1.72664 -7.01021,-2.49201 -8.75109,-3.51657 -2.49392,-1.46776 -3.49177,-3.49035 -2.26434,-4.58971 0.4282,-0.38352 0.82833,-0.4444 2.18281,-0.33209 2.12692,0.17634 14.24385,3.43007 15.61603,4.19332 1.75627,0.97691 2.24568,2.50536 1.17003,3.65404 -0.61802,0.65998 -3.24521,1.79026 -4.09113,1.76011 -0.2492,-0.009 -1.98724,-0.53498 -3.86231,-1.1691 z m 269.63442,-3.11898 c -0.61431,-0.60796 -0.56737,-1.16587 0.19092,-2.27034 0.65053,-0.94745 3.00197,-2.50644 4.62516,-3.06646 0.48813,-0.1684 2.19686,-0.42839 3.79722,-0.57775 2.46904,-0.23044 3.00172,-0.21192 3.51711,0.1223 1.52064,0.98609 0.9467,2.31075 -1.6165,3.73086 -3.39627,1.88166 -9.4886,3.07614 -10.51391,2.06139 z m 1024.14771,0.11382 c -3.72872,-0.38215 -7.06649,-1.54589 -8.07569,-2.81566 -0.74234,-0.93402 -0.68982,-2.4621 0.11647,-3.38809 0.58362,-0.67028 0.78991,-0.73265 2.35246,-0.71121 1.08294,0.0148 2.23414,0.22955 3.13061,0.58385 2.44967,0.96817 4.48431,1.35657 7.10636,1.35657 4.19473,0 7.68612,-1.26447 10.53402,-3.81508 3.62672,-3.24816 4.40854,-8.07147 1.55342,-9.58373 -0.88268,-0.46753 -3.25213,-0.34291 -5.70249,0.29992 -1.87579,0.4921 -2.72455,0.56512 -5.55625,0.47801 -3.07639,-0.0946 -3.48406,-0.16815 -5.1249,-0.92411 -4.95795,-2.28417 -7.48519,-7.26837 -6.99421,-13.79392 0.67009,-8.90629 7.84289,-17.47302 16.05291,-19.17251 3.1914,-0.66063 5.99313,-0.39615 8.88391,0.83863 2.9331,1.25284 4.92893,1.43034 8.35147,0.7427 2.12328,-0.42659 2.4828,-0.43666 3.43921,-0.0963 0.61942,0.2204 1.21193,0.65503 1.4105,1.03468 0.84238,1.6105 0.99211,2.09963 0.83587,2.73059 -0.27136,1.09578 -0.37468,1.6005 -2.82472,13.79739 -2.80212,13.94974 -3.2131,15.64797 -4.50662,18.62254 -2.52026,5.79555 -5.63729,9.24549 -10.6013,11.7336 -1.11273,0.55774 -2.90581,1.24287 -3.98465,1.52253 -2.31577,0.6003 -7.35362,0.87149 -10.39638,0.55964 z m 13.84186,-23.02187 c 3.66033,-1.43229 6.86578,-4.40102 8.77909,-8.13078 2.89224,-5.63804 1.25188,-12.54864 -3.56039,-14.99935 -1.52363,-0.77594 -4.58187,-0.91599 -7.07004,-0.32377 -7.53046,1.79234 -12.40666,7.77535 -12.07757,14.81895 0.21821,4.6704 3.17715,8.1976 7.66252,9.13416 1.72662,0.36052 4.66818,0.12618 6.26639,-0.49921 z m -97.87948,22.51303 c -1.08294,-0.58315 -1.37202,-1.25771 -0.92194,-2.15119 0.46263,-0.91836 2.06814,-1.66078 5.57049,-2.57589 3.46839,-0.90624 4.07847,-1.16751 5.41025,-2.3171 1.15538,-0.9973 2.21099,-1.20508 3.36616,-0.66257 0.87963,0.41311 1.36731,1.31172 1.19052,2.19363 -0.22148,1.10484 -1.87034,2.06881 -4.97255,2.90714 -2.42597,0.65558 -3.90483,1.34073 -4.9139,2.27659 -0.99158,0.91965 -3.33039,1.08255 -4.72903,0.32939 z m -305.03217,-1.50718 c -0.80036,-0.19516 -1.69333,-0.46545 -1.98438,-0.60064 -0.29104,-0.13519 -2.35291,-0.95921 -4.58194,-1.83117 -5.02584,-1.96602 -7.61315,-3.24175 -7.99074,-3.94004 -0.24699,-0.45674 -0.15398,-0.6714 0.62468,-1.44205 0.85543,-0.84662 1.0264,-0.90544 2.63152,-0.90544 4.64672,0 13.22441,3.99573 13.84687,6.45026 0.24349,0.96015 -0.11526,2.37945 -0.63429,2.50952 -0.25109,0.0629 -1.11136,-0.0453 -1.91172,-0.24044 z m -929.48125,-2.83539 c -4.87398,-0.9958 -11.27055,-3.76853 -13.40046,-5.80872 -0.97934,-0.9381 -1.15162,-1.25896 -1.15162,-2.14486 0,-0.57295 0.12706,-1.11945 0.28236,-1.21444 0.62011,-0.3793 7.91985,1.43146 13.14597,3.26097 2.61679,0.91606 5.44777,2.43834 6.00879,3.23105 0.22364,0.316 0.40663,0.96677 0.40663,1.44615 0,0.74705 -0.1311,0.9258 -0.91755,1.25101 -1.09602,0.45323 -2.07541,0.44849 -4.37412,-0.0212 z m 318.49883,-2.88801 c -0.87641,-0.47071 -1.26341,-1.13538 -1.26341,-2.16988 0,-0.95772 1.08558,-1.93662 3.175,-2.86297 1.87245,-0.83016 8.29442,-2.6765 9.30947,-2.6765 3.68506,0 1.46322,3.48148 -3.83636,6.01135 -4.37348,2.08777 -5.97384,2.45575 -7.3847,1.698 z m 586.82906,-2.87361 c -4.0435,-0.99433 -9.57067,-3.66704 -10.60456,-5.12789 -0.71085,-1.00444 -0.56073,-1.9481 0.37069,-2.32992 2.57709,-1.05647 10.79873,1.73195 13.42696,4.55385 0.61408,0.65933 1.11652,1.31269 1.11652,1.45189 0,0.53878 -1.22867,1.59782 -1.98438,1.71042 -0.43656,0.0651 -1.48293,-0.0512 -2.32523,-0.25835 z m -932.44768,-3.37986 c -3.34202,-0.84018 -7.11184,-2.65054 -8.54917,-4.10552 -1.02103,-1.03357 -1.21527,-1.82679 -0.72923,-2.97805 0.35279,-0.83564 0.4846,-0.9187 1.45786,-0.9187 1.98303,0 9.22997,3.35475 11.19398,5.1819 0.93195,0.86702 0.99836,2.19453 0.13956,2.78985 -0.69193,0.47966 -1.69189,0.48834 -3.513,0.0305 z m 371.25143,-4.81515 c -1.84508,-2.01776 2.24977,-5.45664 8.77017,-7.36529 7.6337,-2.23453 5.97405,1.7066 -2.52307,5.99147 -2.20422,1.11152 -4.28755,1.8449 -5.25492,1.84985 -0.30488,0.002 -0.75136,-0.21266 -0.99218,-0.47603 z m -491.47193,-0.45606 c -0.6463,-0.81317 -0.94387,-2.54418 -0.70218,-4.08474 0.0978,-0.62367 0.84203,-4.37441 1.65374,-8.33498 1.21636,-5.93489 1.47829,-7.68446 1.48972,-9.95051 0.0166,-3.28482 -0.3201,-4.18704 -2.57305,-6.89538 -1.66905,-2.00641 -1.81974,-2.70039 -0.98255,-4.52493 0.35114,-0.76524 0.94285,-1.37165 2.04408,-2.09484 2.1017,-1.38023 4.163,-3.45999 4.94713,-4.99143 0.35667,-0.6966 1.03947,-2.67989 1.51733,-4.4073 1.71466,-6.19826 4.68596,-10.54638 8.7229,-12.76482 2.58815,-1.42228 4.33548,-1.8302 7.38972,-1.72515 2.91293,0.10019 3.71262,0.49048 3.71262,1.81198 0,1.22437 -1.21178,2.30056 -4.16744,3.70115 -5.54727,2.62866 -8.22364,6.40627 -8.70686,12.28948 -0.26515,3.22813 0.75344,4.76122 4.25284,6.40103 1.43575,0.67279 2.27146,1.60978 2.27146,2.54674 0,0.80143 -1.20634,1.80262 -3.69855,3.06958 -4.41653,2.24523 -6.29561,4.34555 -7.3707,8.23853 -0.31819,1.15216 -1.17841,5.09964 -1.91161,8.77216 -1.99601,9.99782 -2.47827,11.47366 -4.22435,12.92775 -1.1572,0.96368 -2.90484,0.97116 -3.66425,0.0157 z m 99.05383,-3.26441 c -2.27941,-0.46117 -7.2508,-2.74627 -8.82283,-4.0554 -1.62651,-1.35451 -0.77113,-2.7432 1.6897,-2.7432 1.49817,0 4.45092,0.69921 6.0748,1.43851 1.59112,0.7244 4.57393,2.71405 5.02564,3.35231 0.54978,0.77683 0.49852,1.68406 -0.11346,2.00821 -0.58775,0.31131 -2.31394,0.31112 -3.85385,-5.2e-4 z M 718.3333,273.1509 c -0.90746,-0.20493 -1.97903,-0.54271 -2.38125,-0.75063 -1.1721,-0.60587 -2.19421,-1.83994 -2.35966,-2.84898 -0.13697,-0.83536 -0.0726,-0.9751 0.60524,-1.31341 0.41719,-0.20822 1.11572,-0.46388 1.55228,-0.56813 1.63388,-0.39019 6.10987,-0.58336 9.24184,-0.39884 4.46286,0.26291 6.23629,1.07462 6.23629,2.85438 0,0.87854 -1.82208,2.45838 -3.31013,2.87005 -1.89534,0.52436 -7.54544,0.61606 -9.58461,0.15556 z m -24.27922,-0.67826 c -1.98379,-0.28062 -3.42694,-0.90375 -3.78926,-1.63615 -0.53205,-1.07556 -0.61301,-1.7546 -0.31551,-2.64675 0.47331,-1.4193 1.32326,-1.58614 7.94123,-1.55872 6.01953,0.025 8.37194,0.35734 9.78958,1.38327 1.3085,0.94694 0.84341,2.47729 -1.04217,3.42932 -2.2234,1.1226 -8.36943,1.62519 -12.58387,1.02903 z m -123.825,-0.37936 c -1.21412,-0.66783 -2.04433,-0.86426 -6.51971,-1.54255 -2.27615,-0.34498 -4.50421,-0.81441 -4.95122,-1.04319 -1.62671,-0.83254 -1.69,-3.93836 -0.0931,-4.56897 3.29173,-1.29991 13.91645,-1.38032 16.97373,-0.12847 0.50149,0.20534 1.30517,0.67029 1.78594,1.03321 1.85468,1.40005 0.81296,3.96919 -2.37368,5.85408 -1.33993,0.79257 -3.74224,0.98981 -4.82198,0.39589 z m 97.60535,-0.117 c -3.0229,-0.43867 -4.07514,-1.15867 -4.07514,-2.78839 0,-1.13489 1.23071,-2.31619 2.99093,-2.87083 3.73403,-1.1766 13.6358,-0.46121 15.53763,1.12257 0.8591,0.71545 1.06423,1.96919 0.45529,2.78281 -1.11969,1.49602 -9.71643,2.50732 -14.90871,1.75384 z m -23.91889,-0.16321 c -2.45793,-0.47793 -3.73544,-1.29009 -4.50538,-2.86419 -0.66429,-1.35809 -0.40595,-2.23775 0.85598,-2.91454 1.6824,-0.90228 11.70289,-0.73385 13.84644,0.23274 0.82642,0.37266 1.28037,1.5543 1.1022,2.86897 -0.18852,1.39117 -0.51141,1.68014 -2.4357,2.17994 -1.57089,0.40801 -7.58656,0.74538 -8.86354,0.49708 z m -52.12292,-0.65029 c -3.72298,-0.31604 -6.25456,-0.92783 -6.75285,-1.63191 -0.60664,-0.85714 -0.5143,-3.1245 0.15147,-3.72082 0.79983,-0.71637 4.36883,-1.12921 9.93534,-1.14926 6.82974,-0.0246 7.51396,0.28511 7.51396,3.40128 0,1.51333 -0.0984,1.90271 -0.63791,2.52408 -0.6335,0.7296 -0.66152,0.73497 -4.0349,0.77358 -1.86835,0.0214 -4.64714,-0.0672 -6.17511,-0.19695 z m 27.11979,-0.24486 c -4.76186,-0.51654 -7.44297,-1.69948 -7.22934,-3.18969 0.3882,-2.70786 15.60319,-3.56376 18.54139,-1.04302 0.55705,0.47791 1.07984,2.24431 0.86368,2.91829 -0.0851,0.26548 -0.47823,0.61026 -0.8736,0.7662 -1.93064,0.76151 -7.04763,1.00971 -11.30213,0.54822 z m -132.68854,-0.77589 c -5.11752,-0.4214 -6.39104,-1.09493 -6.76746,-3.57913 -0.25672,-1.69432 0.3937,-2.88952 1.70498,-3.13298 1.62179,-0.30111 11.62939,0.13581 15.57924,0.68016 4.02069,0.55413 5.2078,0.9676 5.67182,1.97553 0.85659,1.8606 -2.78693,3.51967 -8.91254,4.05834 -3.15883,0.27777 -3.88167,0.27758 -7.27604,-0.002 z m 27.36562,0.0171 c -2.37837,-0.3721 -3.28854,-1.2165 -3.28854,-3.05097 0,-2.55269 2.05531,-3.40486 7.66879,-3.1796 5.9417,0.23843 7.14788,0.77212 7.14788,3.16271 0,1.75728 -0.33959,2.19445 -2.05184,2.64148 -1.70366,0.44478 -7.64884,0.71228 -9.47629,0.42638 z m 23.19364,0.0332 c -0.99399,-0.3013 -1.5937,-1.33658 -1.77322,-3.06122 -0.29929,-2.87537 0.56015,-3.25662 7.30563,-3.24071 6.42569,0.0152 7.40947,0.50505 6.65138,3.31225 -0.40457,1.49813 -1.0497,2.22535 -2.35812,2.65812 -1.11411,0.36851 -8.8433,0.62933 -9.82567,0.33156 z m -84.19349,-0.99713 c -1.06995,-1.22937 -1.37247,-3.16112 -0.64402,-4.1122 0.53917,-0.70399 2.55423,-1.22076 5.83554,-1.49656 4.03556,-0.33919 10.73298,-0.33831 12.00841,0.002 2.01792,0.53776 3.61727,3.38646 2.51161,4.47351 -0.75436,0.74167 -5.55612,1.28734 -12.93252,1.46965 -5.99884,0.14827 -6.37373,0.12969 -6.77902,-0.336 z m -25.64929,-0.12547 c -4.53938,-0.34649 -5.95471,-1.23679 -5.75075,-3.61747 0.0601,-0.70141 0.28361,-1.0588 0.93155,-1.48942 1.56602,-1.04076 3.85493,-1.28327 12.11209,-1.28327 7.65527,0 7.67596,0.002 8.99584,0.65464 1.09725,0.54296 1.38864,0.8428 1.7082,1.7577 0.54896,1.57154 0.19442,2.40808 -1.34001,3.162 -1.8869,0.9271 -9.99585,1.32426 -16.65692,0.81582 z m -25.11856,-0.40455 c -2.97458,-0.57875 -3.96875,-1.33966 -3.96875,-3.03757 0,-1.3291 0.63349,-2.37736 1.68296,-2.78483 1.29868,-0.50422 5.30947,-0.65094 8.5035,-0.31105 5.32055,0.56618 6.05488,0.94931 6.05488,3.15918 0,1.51458 -0.50967,2.21315 -1.92736,2.64169 -0.98393,0.29742 -9.17286,0.56068 -10.34523,0.33258 z m -84.83595,-1.00411 c -1.03899,-0.18662 -2.31503,-0.47844 -2.83562,-0.64848 -1.17456,-0.38366 -2.29288,-1.63475 -2.10312,-2.35288 0.37933,-1.43561 4.48633,-2.5111 8.77422,-2.29769 4.21449,0.20977 5.74659,0.87057 6.0303,2.60092 0.41267,2.51678 -0.53247,3.09639 -4.99165,3.06109 -1.64177,-0.013 -3.83514,-0.17633 -4.87413,-0.36296 z m 59.28093,-0.246 c -2.46177,-0.46012 -3.01998,-0.77208 -3.01998,-1.68768 0,-2.7228 7.53403,-4.27712 13.40104,-2.76471 1.81742,0.46849 2.64115,1.05195 3.01424,2.13499 0.37846,1.09861 0.11763,1.8606 -0.76137,2.22413 -1.08363,0.44817 -10.36838,0.51672 -12.63393,0.0933 z m -89.14186,-0.0213 c -0.14552,-0.0488 -0.71154,-0.1628 -1.25783,-0.25324 -1.95183,-0.32313 -2.78169,-2.41268 -1.3888,-3.49703 1.4124,-1.09954 3.83821,-1.407 10.359,-1.31296 6.95507,0.10031 7.23659,0.17076 7.23659,1.81098 0,1.89762 -1.34001,2.64268 -5.63134,3.13104 -2.03208,0.23126 -8.73019,0.31839 -9.31762,0.12121 z m -51.90159,-0.61861 c -1.31702,-0.23543 -1.90561,-0.67518 -2.36755,-1.76884 -0.51432,-1.21769 -0.0658,-2.55291 1.03045,-3.06776 1.67235,-0.7854 2.31103,-0.94208 4.92056,-1.20711 4.19997,-0.42655 8.7978,0.32072 10.02528,1.62938 0.29951,0.31934 0.62785,1.14074 0.72961,1.82532 0.18344,1.23381 0.17703,1.24801 -0.73083,1.62343 -1.82076,0.75292 -11.10977,1.41207 -13.60752,0.96558 z m -26.08908,-0.32175 c -3.84575,-0.55716 -4.499,-1.02636 -4.37573,-3.14282 0.0744,-1.2772 0.15623,-1.4338 1.00703,-1.92708 0.87056,-0.50474 1.34609,-0.5369 7.9375,-0.5369 6.13949,0 7.16621,0.0591 8.25584,0.47522 1.4246,0.54405 1.70844,1.08787 1.26376,2.42134 -0.40159,1.20434 -1.89079,2.13509 -4.18666,2.61669 -1.92524,0.40384 -7.4027,0.45559 -9.90174,0.0935 z m 54.17817,0.16282 c -0.14552,-0.0444 -0.95342,-0.2317 -1.79533,-0.41616 -2.45438,-0.53775 -3.3356,-1.75354 -2.53362,-3.49553 0.59904,-1.30124 1.75559,-1.55981 6.17056,-1.37956 7.39632,0.30198 13.02776,1.85432 12.41935,3.42348 -0.19108,0.49281 -1.69264,1.16588 -3.54533,1.58921 -1.18028,0.26968 -3.0893,0.38768 -6.08542,0.37615 -2.40109,-0.009 -4.48469,-0.0532 -4.63021,-0.0976 z m -81.52172,-0.42452 c -5.40025,-0.25267 -5.9295,-0.51292 -6.35125,-3.12313 -0.16695,-1.03328 -0.16597,-1.03468 1.12274,-1.5933 1.14649,-0.49697 1.92196,-0.57345 6.97836,-0.6882 6.14748,-0.1395 9.25338,0.12787 10.07938,0.86768 0.71122,0.63702 0.71019,3.0465 -0.003,3.75098 -0.77266,0.76471 -5.5281,1.08072 -11.82759,0.78597 z m -28.01578,-0.15357 c -0.43656,-0.0539 -1.65235,-0.27895 -2.70171,-0.50007 -1.52532,-0.32142 -2.04272,-0.56051 -2.57969,-1.1921 -2.19091,-2.57689 1.07013,-4.53677 8.08421,-4.85861 4.37632,-0.2008 7.12909,0.43199 8.52506,1.9597 0.57375,0.6279 0.6645,1.96585 0.17307,2.55188 -1.33543,1.59251 -6.99411,2.59583 -11.50094,2.0392 z M 101.652,265.26061 c -0.58209,-0.0442 -3.260993,-0.20816 -5.953128,-0.36428 -7.15391,-0.41486 -11.145599,-1.18407 -11.549433,-2.22559 -0.355388,-0.91658 0.150918,-1.64424 1.428803,-2.05354 1.916509,-0.61384 8.216741,-1.04936 15.412298,-1.06541 7.44379,-0.0166 8.07659,0.10468 8.36049,1.60238 0.23013,1.214 -0.0277,2.94849 -0.50909,3.42492 -0.71429,0.70693 -3.44707,0.96597 -7.18994,0.68152 z m 29.50104,0.0116 c -5.67241,-0.47358 -9.32278,-1.25528 -10.16545,-2.17685 -0.7215,-0.78902 -0.43638,-1.65286 0.72355,-2.1922 1.5602,-0.72547 3.3876,-0.9732 7.16291,-0.97105 4.07077,0.002 6.38143,0.3237 8.06931,1.12231 1.20582,0.57053 1.22113,0.59384 1.22113,1.8588 0,1.82175 -0.63648,2.24215 -3.58065,2.36495 -1.23209,0.0514 -2.77596,0.0487 -3.4308,-0.006 z M 63.155122,264.644 c -2.033693,-0.26934 -3.587882,-0.72462 -3.950732,-1.15733 -0.169518,-0.20214 -0.377349,-0.78913 -0.46183,-1.30442 -0.136763,-0.83406 -0.03966,-1.04966 0.884555,-1.96435 1.564508,-1.5484 3.31851,-1.9902 7.893632,-1.98826 5.27984,0.002 7.289535,0.63295 7.798805,2.44752 0.318162,1.13365 0.34716,2.91857 0.0548,3.37414 -0.114459,0.17834 -0.843254,0.44346 -1.619568,0.58917 -1.582526,0.29703 -8.366495,0.29929 -10.599658,0.004 z m -35.321875,-0.25473 c -3.233367,-0.45114 -3.926919,-0.8926 -4.242276,-2.70022 -0.228282,-1.30865 0.346922,-2.16322 1.949477,-2.89629 1.172342,-0.53627 1.607264,-0.56442 8.642799,-0.55944 11.197511,0.008 13.096875,0.45694 13.096875,3.09611 0,1.80413 -0.510725,2.22115 -3.257682,2.6599 -2.761271,0.44104 -13.919068,0.71669 -16.189193,0.39994 z M 8.1217894,263.95086 c -3.472392,-0.22188 -10.040885,-0.94561 -11.384492,-1.25436 -2.584238,-0.59383 -3.717052,-1.46511 -3.300783,-2.53872 0.252624,-0.65148 1.163558,-1.02389 3.119808,-1.27541 2.412206,-0.31015 14.8069036,-0.32028 17.2075206,-0.0141 2.39403,0.30537 2.824613,0.70674 2.824613,2.63296 0,2.25136 -0.370417,2.48072 -4.061857,2.5151 -1.622293,0.0151 -3.6044456,-0.0144 -4.4048096,-0.0655 z m -85.4604174,-0.72444 c -3.42784,-0.63677 -4.23333,-1.31929 -4.23333,-3.58709 0,-2.1859 1.643377,-2.87246 6.86858,-2.86952 5.885709,0.003 9.271,1.18658 9.271,3.24052 0,1.01991 -1.370118,2.29953 -2.928594,2.73515 -2.974763,0.83151 -6.169289,1.00264 -8.977656,0.48094 z m 46.302083,-0.29464 c -1.801548,-0.50071 -2.17588,-0.85709 -2.216758,-2.11055 -0.02741,-0.84045 0.09784,-1.0747 0.844021,-1.57843 1.488889,-1.00512 3.389418,-1.22857 9.045654,-1.06349 6.663743,0.19448 9.260417,0.86259 9.260417,2.38266 0,0.76108 -1.52953,1.54234 -4.177612,2.13384 -2.694464,0.60188 -10.893452,0.75355 -12.755722,0.23597 z m -66.410413,-0.0237 c -1.96289,-0.37619 -2.41912,-0.66531 -2.937092,-1.86123 -0.54692,-1.26276 -0.47617,-2.68992 0.1592,-3.21181 0.21101,-0.1733 2.263882,-0.30212 5.364662,-0.33665 4.52782,-0.0504 5.07559,-0.009 5.55747,0.41943 0.74369,0.66129 0.95589,2.04388 0.48493,3.15943 -0.59462,1.40847 -1.63063,1.79464 -5.05063,1.88259 -1.60438,0.0413 -3.21474,0.018 -3.57854,-0.0518 z m 40.604357,-0.0849 c -0.758745,-0.30439 -1.086114,-0.76779 -1.422717,-2.01404 -0.3996,-1.4794 -0.198226,-1.82324 1.388851,-2.37129 1.194355,-0.41244 2.329894,-0.4717 9.038881,-0.4717 8.727757,0 9.192339,0.0837 9.34675,1.68378 0.17817,1.84638 -0.632407,2.45686 -4.05339,3.05272 -2.334022,0.40653 -13.353865,0.49942 -14.298375,0.12053 z m -165.090819,-1.58371 c -2.18281,-0.40349 -4.20688,-0.8264 -4.49792,-0.93982 -0.77726,-0.30288 -1.17271,-0.9183 -1.18221,-1.83994 -0.0124,-1.2181 0.8431,-2.09895 2.50277,-2.57646 1.73025,-0.49781 7.78584,-0.92815 9.47997,-0.6737 1.67955,0.25226 2.03176,0.61567 2.03176,2.09637 0,1.01132 -0.16899,1.4586 -0.91778,2.42916 -0.93848,1.21642 -2.42774,2.3103 -3.08219,2.26392 -0.20111,-0.0142 -2.15159,-0.35604 -4.3344,-0.75953 z m 24.38786,-0.26714 c -4.25955,-0.7607 -6.2639,-1.80765 -6.2639,-3.27189 0,-1.55435 3.73864,-2.59143 9.39271,-2.60549 2.90261,-0.007 4.0763,0.0997 5.42395,0.49433 2.07778,0.60836 2.56789,0.98699 2.91129,2.24914 0.3529,1.29707 -0.0513,2.37448 -1.13289,3.01981 -1.25375,0.74804 -6.45946,0.80553 -10.33116,0.1141 z m 22.17881,0.0971 c -2.26759,-0.47641 -2.97043,-0.90415 -3.48385,-2.12029 -0.76669,-1.81599 0.26723,-2.769 3.6636,-3.37693 2.94836,-0.52774 9.03518,-0.11612 10.93214,0.73928 1.2981,0.58535 1.50923,3.50183 0.30834,4.25912 -1.45253,0.91598 -8.06077,1.20461 -11.42023,0.49882 z m -103.45209,-0.60454 c -2.75799,-0.31852 -4.79602,-0.98257 -5.41822,-1.76538 -0.58496,-0.736 -0.71868,-2.3918 -0.26148,-3.23732 0.77025,-1.42437 5.25356,-2.25215 9.63287,-1.77857 2.91216,0.31492 4.54379,0.93178 5.93214,2.24274 1.07905,1.01887 1.1553,1.17722 1.00587,2.08855 -0.18714,1.14138 -0.89416,1.768 -2.42568,2.14988 -1.52603,0.3805 -6.30306,0.54985 -8.4655,0.3001 z m 21.86501,-0.25319 c -1.3797,-0.3527 -1.73778,-0.86937 -1.73778,-2.50737 0,-1.88171 0.41415,-2.28709 2.56048,-2.50622 2.07054,-0.2114 11.33705,0.16706 13.47202,0.55021 1.94996,0.34995 3.34029,0.97862 3.53976,1.60056 0.41169,1.28382 -1.20346,2.15709 -4.77449,2.58143 -3.17876,0.37773 -11.94435,0.56659 -13.05999,0.28139 z m -50.30772,-0.53328 c -2.70557,-0.27896 -3.68114,-0.99015 -3.69575,-2.6942 -0.0175,-2.04365 1.35438,-2.55937 7.29665,-2.74297 4.87458,-0.15061 7.71684,0.18717 8.46566,1.00608 0.67236,0.7353 0.64596,2.95398 -0.0433,3.63528 -0.92996,0.91925 -6.95693,1.31817 -12.02328,0.79581 z m -130.96875,-0.70328 c -4.40885,-0.48424 -5.76262,-1.02882 -6.55102,-2.63529 -1.33703,-2.72439 0.94001,-3.95653 7.74996,-4.1936 6.42223,-0.22358 9.23186,0.51811 9.75015,2.57385 0.17521,0.69496 0.12464,1.15296 -0.20271,1.83568 -0.51616,1.07652 -1.40052,1.6328 -3.20575,2.0165 -1.47192,0.31286 -6.10598,0.56043 -7.54063,0.40286 z m 49.87396,-0.10932 c -2.56688,-0.34327 -3.64149,-0.81662 -4.16676,-1.83541 -0.59434,-1.15268 -0.59121,-2.40368 0.007,-2.93976 1.72003,-1.54055 14.91321,-2.34555 18.34269,-1.1192 1.66687,0.59605 2.57426,1.59587 2.77701,3.05988 0.13909,1.00434 0.0691,1.29275 -0.46218,1.90401 -0.51736,0.59528 -0.94744,0.76133 -2.47665,0.95622 -2.24642,0.28628 -11.81963,0.2687 -14.02141,-0.0258 z m 27.51667,0.0354 c -1.30969,-0.107 -2.64888,-0.28063 -2.97596,-0.38585 -0.69879,-0.22478 -0.98515,-1.11872 -0.75215,-2.34793 0.32345,-1.7064 1.58779,-2.21097 6.24165,-2.49089 4.45603,-0.26803 10.09383,0.0248 10.93113,0.56775 0.75522,0.48975 1.05143,1.85527 0.6863,3.16399 -0.18693,0.67006 -0.47273,0.98613 -1.10609,1.22332 -1.01841,0.38138 -9.50624,0.55708 -13.02488,0.26961 z m 24.12799,-0.0113 c -1.63037,-0.29476 -2.03528,-0.64521 -2.03528,-1.76148 0,-1.13257 1.06571,-2.2617 2.53439,-2.68525 1.97749,-0.57027 8.1738,-0.90951 10.88252,-0.5958 2.83242,0.32803 3.64958,0.73224 4.22214,2.08844 0.58169,1.37782 0.18524,2.03117 -1.55366,2.56036 -1.62882,0.4957 -11.89484,0.78338 -14.05011,0.39373 z m -125.19882,-0.27115 c -4.0022,-0.36686 -7.61243,-1.03828 -8.8498,-1.64584 -1.43322,-0.70373 -2.18553,-1.65776 -1.96098,-2.4868 0.40477,-1.4945 3.35886,-2.01198 11.47223,-2.00963 6.79519,0.002 7.82489,0.17664 8.82034,1.49619 0.50508,0.66952 0.50443,0.68528 -0.0775,1.87509 -0.3228,0.65994 -0.88795,1.43425 -1.25589,1.72068 -1.34489,1.04699 -4.18744,1.41338 -8.14835,1.05031 z m 49.64483,-0.0204 c -2.19687,-0.33561 -3.16652,-0.85687 -3.62818,-1.95039 -0.47705,-1.12997 -0.47229,-1.5441 0.0297,-2.59118 0.67978,-1.41774 1.79499,-1.75337 5.77466,-1.7379 5.2956,0.0206 8.82477,0.52019 9.59059,1.35769 0.24514,0.26809 0.50094,1.05621 0.56843,1.75139 0.15771,1.62442 -0.55166,2.47909 -2.42061,2.9164 -1.76629,0.41328 -7.85154,0.56918 -9.91464,0.25399 z m -88.53858,-0.66204 c -3.7725,-0.57143 -4.59929,-1.09176 -4.82045,-3.03367 -0.29374,-2.57915 1.2534,-2.9394 10.90586,-2.53939 8.83046,0.36595 11.54227,0.93221 11.93804,2.49283 0.61476,2.42414 -1.16594,2.93678 -10.74741,3.09406 -3.56526,0.0585 -6.83948,0.0523 -7.27604,-0.0138 z m -56.69793,-0.61219 c -1.94402,-0.30526 -2.84656,-0.72401 -3.19588,-1.48277 -0.88174,-1.91526 0.46351,-3.03877 4.24092,-3.54188 2.59684,-0.34588 9.38394,-0.18427 10.17832,0.24236 0.73903,0.3969 0.94565,1.55504 0.45958,2.57596 -0.66593,1.39868 -3.03917,2.1229 -7.57953,2.31299 -1.48687,0.0623 -3.3334,0.0142 -4.10341,-0.10666 z m 27.06459,0.077 c -2.24407,-0.32393 -3.56479,-0.8876 -3.99101,-1.70332 -1.35377,-2.59092 2.68644,-3.80533 11.89008,-3.57393 5.20559,0.13088 5.95638,0.34049 6.32728,1.76655 0.34367,1.32132 0.0236,2.56199 -0.79876,3.09578 -0.61103,0.39664 -1.48248,0.46105 -6.66836,0.49288 -3.28101,0.0201 -6.32267,-0.0149 -6.75923,-0.078 z m -47.65836,-1.4359 c -1.28781,-0.28642 -2.01716,-0.98845 -2.01716,-1.94158 0,-1.53172 1.58752,-2.02948 5.28018,-1.65558 3.88513,0.39337 6.37792,1.50011 5.72842,2.54326 -0.71008,1.14046 -5.87851,1.74626 -8.99144,1.0539 z M 307.63012,247.273 c -4.8976,-1.47047 -14.07062,-5.56422 -15.76274,-7.0346 -1.06569,-0.92602 -1.13157,-1.49172 -0.28696,-2.4635 0.53646,-0.61728 0.79801,-0.70599 1.96114,-0.66525 1.61375,0.0565 4.83492,1.29145 8.92919,3.42323 8.12323,4.22956 9.78915,5.37517 9.61241,6.61017 -0.0753,0.52599 -0.2527,0.61876 -1.27804,0.66826 -0.65484,0.0316 -2.08359,-0.21062 -3.175,-0.53831 z m -406.598438,-3.08454 c -0.49043,-0.49867 -0.40111,-1.64349 0.18587,-2.38201 1.1439,-1.43926 7.2684,-5.01755 10.4579,-6.11014 1.6528,-0.56618 3.313,0.089 3.313,1.3075 0,0.83342 -1.93323,2.51215 -4.6302,4.02064 -4.79314,2.68094 -8.54864,3.95498 -9.32657,3.16401 z m 381.339668,-7.7136 c -2.56741,-0.50352 -6.91575,-2.02713 -10.13605,-3.55157 -3.17661,-1.50377 -4.82185,-2.92518 -4.82185,-4.1659 0,-1.02923 1.03701,-2.08294 2.04994,-2.08294 0.80664,0 4.97846,1.12943 6.28444,1.70139 0.43656,0.19118 1.80578,0.78607 3.04271,1.32196 2.98701,1.29411 6.40159,3.17526 7.39724,4.07527 0.91245,0.8248 1.01502,1.50713 0.34182,2.27363 -0.63273,0.7204 -1.96736,0.85782 -4.15825,0.42816 z m -361.09568,-2.35461 c -2.317038,-1.24426 -0.207936,-3.79076 5.537332,-6.68571 5.781834,-2.91336 9.34212,-3.12808 9.34212,-0.56344 0,0.63946 -0.264663,1.0386 -1.256771,1.89541 -2.052796,1.77282 -10.767272,5.78082 -12.501562,5.74977 -0.218282,-0.004 -0.722789,-0.18212 -1.121119,-0.39603 z m 336.08362,-7.19603 c -2.51757,-0.27257 -5.90167,-1.13978 -8.4931,-2.17642 -4.47434,-1.78986 -6.29494,-3.37375 -6.08947,-5.29779 0.0952,-0.89148 2.59885,-1.12499 5.50328,-0.51329 2.5726,0.54181 11.98362,3.78533 12.70696,4.37947 0.19026,0.15627 0.34108,0.82693 0.34108,1.51677 0,1.96348 -0.87763,2.42593 -3.96875,2.09126 z m -315.65485,-2.09556 c -0.813462,-1.50429 1.556094,-4.08101 5.43089,-5.90569 3.497951,-1.64722 5.793873,-2.00731 6.945313,-1.08929 0.623781,0.49733 0.384678,1.95352 -0.481039,2.92935 -0.936996,1.05616 -2.356326,1.76493 -6.842734,3.41703 -3.604207,1.32723 -4.615259,1.45702 -5.05243,0.6486 z m 289.19651,-5.88095 c -0.94588,-0.46525 -3.43723,-1.34149 -5.5363,-1.94722 -4.348,-1.25469 -6.91589,-2.39711 -7.84532,-3.49026 -1.87684,-2.20751 0.61222,-3.59253 5.07424,-2.82352 4.12136,0.7103 11.38981,3.51997 13.61191,5.26175 1.22928,0.96357 1.38779,1.94676 0.45016,2.79197 -1.5549,1.40165 -3.20556,1.4611 -5.75469,0.20728 z m -270.643874,-1.37272 c -2.096796,-1.94267 -1.01084,-3.06669 5.488014,-5.68036 3.587089,-1.44264 7.355337,-2.70118 8.74731,-2.92147 1.494923,-0.23658 1.879389,0.14306 1.879389,1.85579 0,1.72789 -0.577136,2.50615 -2.606569,3.51491 -1.648593,0.81945 -11.301598,3.95123 -12.178771,3.95123 -0.303689,0 -0.901886,-0.32405 -1.329373,-0.7201 z m 243.053764,-6.22311 c -1.56835,-0.47449 -3.59241,-0.93819 -4.49792,-1.03043 -3.80195,-0.3873 -6.78923,-1.56567 -8.02103,-3.16399 -0.6882,-0.89298 -0.83756,-2.06068 -0.30604,-2.39269 1.09043,-0.68111 12.8002,0.87922 18.04683,2.40475 1.9058,0.55413 3.1746,1.66004 2.9232,2.5479 -0.78899,2.78655 -2.92214,3.21461 -8.14504,1.63446 z M -15.690711,210.2535 c -1.363398,-0.25494 -1.931459,-1.30728 -1.318049,-2.44164 0.949299,-1.75547 9.6546464,-4.6724 14.2572584,-4.7772 2.046156,-0.0466 2.475945,0.0214 3.117586,0.49352 1.442508,1.0613 0.990759,2.77617 -0.995468,3.77903 -3.095414,1.56288 -12.5591634,3.41418 -15.0613274,2.94629 z m 22.0987144,-5.13249 c -0.827961,-0.6196 -0.722048,-2.42352 0.187775,-3.19804 1.211474,-1.03132 6.2074956,-2.26779 16.4749686,-4.07739 2.612338,-0.46041 4.972633,-0.45449 5.542968,0.0139 0.529352,0.43474 0.443521,2.08952 -0.144753,2.79105 -1.035685,1.23506 -6.03594,2.7455 -12.806548,3.86849 -5.481399,0.90917 -8.5750136,1.11041 -9.2544106,0.60199 z m 167.3429466,0.16616 c -2.09751,-0.11547 -7.07101,-0.85152 -8.49114,-1.25664 -1.7839,-0.5089 -3.35367,-1.36759 -3.71223,-2.03065 -0.53616,-0.99151 -0.74735,-2.35661 -0.44972,-2.907 0.26025,-0.48128 0.48073,-0.5037 3.48888,-0.35481 4.98602,0.24678 11.21701,1.19286 13.41326,2.03659 1.3122,0.5041 2.02089,2.67229 1.22537,3.74899 -0.35158,0.47587 -2.15228,0.94816 -3.35775,0.88067 -0.3638,-0.0204 -1.3163,-0.0731 -2.11667,-0.11715 z M 143.32387,201.25 c -6.13614,-0.94919 -9.44449,-1.80171 -10.50917,-2.70807 -0.63421,-0.53991 -0.69202,-0.7095 -0.46215,-1.35633 0.84648,-2.38218 5.06479,-2.75815 14.09473,-1.25623 5.44192,0.90514 7.19547,1.78219 6.4222,3.21212 -0.44193,0.81726 -1.81396,1.83034 -2.87311,2.12146 -1.14972,0.31602 -4.58899,0.30935 -6.6725,-0.013 z M 35.638455,200.4889 c -0.789172,-0.78102 -0.722683,-2.61263 0.131313,-3.61706 0.905378,-1.06491 2.230411,-1.53154 6.088036,-2.14402 6.933062,-1.10077 10.509224,-0.43249 11.278182,2.10754 0.272865,0.9014 0.251725,1.10042 -0.165312,1.55651 -0.759592,0.83068 -3.30999,1.35801 -10.849927,2.24338 -4.491778,0.52744 -5.832052,0.49718 -6.482292,-0.14635 z m 77.614725,-1.56727 c -4.49709,-1.16674 -5.82715,-2.78475 -3.38362,-4.11611 1.66137,-0.9052 5.39774,-1.26878 9.28513,-0.90352 5.20498,0.48906 6.70266,1.29585 5.91208,3.18478 -0.63309,1.51269 -3.3588,2.36473 -7.48664,2.34028 -1.48575,-0.009 -3.17188,-0.20576 -4.32695,-0.50543 z m -50.362641,0.0891 c -1.705769,-0.3025 -2.264781,-0.76021 -2.742962,-2.24588 -0.208386,-0.64744 0.287073,-1.83666 0.968057,-2.32362 1.719422,-1.2295 7.355946,-1.94104 12.127045,-1.53088 2.852791,0.24524 3.581268,0.50321 3.921416,1.38867 0.586714,1.52724 -0.448839,2.86863 -2.665227,3.4524 -2.677054,0.7051 -10.15746,1.5166 -11.608329,1.25931 z m 22.092708,-0.79343 c -2.632922,-0.23323 -3.042708,-0.5944 -3.042708,-2.68176 0,-2.5082 0.01508,-2.51366 6.84186,-2.48792 5.756513,0.0217 9.706954,0.39136 11.322681,1.05949 1.088,0.44991 1.54073,1.20776 1.1515,1.92755 -0.65463,1.2106 -2.893671,1.7133 -8.732708,1.96064 -1.964531,0.0832 -4.226719,0.1883 -5.027083,0.23352 -0.800365,0.0452 -1.931459,0.04 -2.513542,-0.0115 z M 112.56606,96.511232 c -0.80296,-0.462848 -1.25677,-1.705481 -1.25677,-3.441194 0,-2.333307 5.02637,-27.299151 5.96167,-29.61136 1.38271,-3.418346 3.99248,-4.513365 8.15536,-3.421858 2.6,0.681727 4.92662,0.556428 7.84494,-0.422487 1.38161,-0.463435 3.22636,-0.900994 4.09949,-0.972353 1.36464,-0.111529 1.71751,-0.04219 2.51354,0.493881 1.12376,0.756782 1.25719,1.419049 0.55885,2.773814 -0.61722,1.197394 -0.88643,1.322599 -5.18906,2.413411 -5.20703,1.320096 -8.39298,3.233175 -10.79968,6.484894 -2.18687,2.954697 -3.07213,5.619698 -4.80478,14.464437 -1.36512,6.96856 -2.16691,9.130047 -3.96693,10.69419 -0.99441,0.86411 -2.19765,1.07437 -3.11663,0.544625 z"
       id="path248" /></g></svg>
